HIERARCHY
ROOT Hips
{
	OFFSET 0.000000 35.082581 0.000000
	CHANNELS 6 Xposition Yposition Zposition Xrotation Yrotation Zrotation 
	JOINT Spine
	{
		OFFSET 0.000000 6.876099 0.125700
		CHANNELS 3 Xrotation Yrotation Zrotation
		JOINT Spine1
		{
			OFFSET 0.000000 5.730043 0.104720
			CHANNELS 3 Xrotation Yrotation Zrotation
			JOINT Spine1_split
			{
				OFFSET 0.000000 5.730043 0.104720
				CHANNELS 3 Xrotation Yrotation Zrotation
				JOINT Spine2
				{
					OFFSET 0.000000 5.730043 0.104720
					CHANNELS 3 Xrotation Yrotation Zrotation
					JOINT Neck
					{
						OFFSET 0.000000 10.314075 0.188496
						CHANNELS 3 Xrotation Yrotation Zrotation
						JOINT Head
						{
							OFFSET 0.000000 7.643700 -2.377400
							CHANNELS 3 Xrotation Yrotation Zrotation
							JOINT HeadTop_End
							{
								OFFSET 0.000000 43.788605 -13.619600
								CHANNELS 3 Xrotation Yrotation Zrotation
								End Site
								{
									OFFSET 0.000000 0.000000 0.000000
								}
							}
						}
					}
					JOINT LeftShoulder
					{
						OFFSET 2.196100 4.412489 0.087492
						CHANNELS 3 Xrotation Yrotation Zrotation
						JOINT LeftShoulder_split
						{
							OFFSET 2.196100 4.412489 0.087492
							CHANNELS 3 Xrotation Yrotation Zrotation
							JOINT LeftArm
							{
								OFFSET 8.771219 -2.981674 -0.026999
								CHANNELS 3 Xrotation Yrotation Zrotation
								JOINT LeftForeArm
								{
									OFFSET 8.512804 0.000000 -0.000000
									CHANNELS 3 Xrotation Yrotation Zrotation
									JOINT LeftHand
									{
										OFFSET 18.484802 0.000000 -0.000000
										CHANNELS 3 Xrotation Yrotation Zrotation
										JOINT LeftHandThumb1
										{
											OFFSET 2.499420 -1.158070 2.653252
											CHANNELS 3 Xrotation Yrotation Zrotation
											JOINT LeftHandThumb2
											{
												OFFSET 2.370079 -1.368366 1.368366
												CHANNELS 3 Xrotation Yrotation Zrotation
												JOINT LeftHandThumb3
												{
													OFFSET 2.676727 -1.545410 1.545409
													CHANNELS 3 Xrotation Yrotation Zrotation
													JOINT LeftHandThumb4
													{
														OFFSET 1.692226 -0.977005 0.977007
														CHANNELS 3 Xrotation Yrotation Zrotation
														End Site
														{
															OFFSET 0.000000 0.000000 0.000000
														}
													}
												}
											}
										}
										JOINT LeftHandIndex1
										{
											OFFSET 7.924831 -0.457527 2.345128
											CHANNELS 3 Xrotation Yrotation Zrotation
											JOINT LeftHandIndex2
											{
												OFFSET 3.643303 0.000000 0.000000
												CHANNELS 3 Xrotation Yrotation Zrotation
												JOINT LeftHandIndex3
												{
													OFFSET 3.810799 0.000000 0.000000
													CHANNELS 3 Xrotation Yrotation Zrotation
													JOINT LeftHandIndex4
													{
														OFFSET 2.403702 0.000000 0.000000
														CHANNELS 3 Xrotation Yrotation Zrotation
														End Site
														{
															OFFSET 0.000000 0.000000 0.000000
														}
													}
												}
											}
										}
										JOINT LeftHandMiddle1
										{
											OFFSET 8.563995 0.000000 -0.000000
											CHANNELS 3 Xrotation Yrotation Zrotation
											JOINT LeftHandMiddle2
											{
												OFFSET 3.861618 0.000000 0.000000
												CHANNELS 3 Xrotation Yrotation Zrotation
												JOINT LeftHandMiddle3
												{
													OFFSET 3.701603 0.000000 0.000000
													CHANNELS 3 Xrotation Yrotation Zrotation
													JOINT LeftHandMiddle4
													{
														OFFSET 2.322544 0.000000 0.000000
														CHANNELS 3 Xrotation Yrotation Zrotation
														End Site
														{
															OFFSET 0.000000 0.000000 0.000000
														}
													}
												}
											}
										}
										JOINT LeftHandRing1
										{
											OFFSET 8.426460 -0.424637 -3.286992
											CHANNELS 3 Xrotation Yrotation Zrotation
											JOINT LeftHandRing2
											{
												OFFSET 3.126408 0.000000 0.000000
												CHANNELS 3 Xrotation Yrotation Zrotation
												JOINT LeftHandRing3
												{
													OFFSET 3.085026 0.000000 0.000000
													CHANNELS 3 Xrotation Yrotation Zrotation
													JOINT LeftHandRing4
													{
														OFFSET 1.644005 0.000000 0.000000
														CHANNELS 3 Xrotation Yrotation Zrotation
														End Site
														{
															OFFSET 0.000000 0.000000 0.000000
														}
													}
												}
											}
										}
									}
								}
							}
						}
					}
					JOINT RightShoulder
					{
						OFFSET -2.196100 4.412496 0.070690
						CHANNELS 3 Xrotation Yrotation Zrotation
						JOINT RightShoulder_split
						{
							OFFSET -2.196100 4.412496 0.070690
							CHANNELS 3 Xrotation Yrotation Zrotation
							JOINT RightArm
							{
								OFFSET -8.771282 -2.981682 -0.094208
								CHANNELS 3 Xrotation Yrotation Zrotation
								JOINT RightForeArm
								{
									OFFSET -8.494598 0.000000 0.000000
									CHANNELS 3 Xrotation Yrotation Zrotation
									JOINT RightHand
									{
										OFFSET -18.483803 0.000000 0.000001
										CHANNELS 3 Xrotation Yrotation Zrotation
										JOINT RightHandThumb1
										{
											OFFSET -2.527351 -1.008072 2.575253
											CHANNELS 3 Xrotation Yrotation Zrotation
											JOINT RightHandThumb2
											{
												OFFSET -2.321518 -1.340328 1.340329
												CHANNELS 3 Xrotation Yrotation Zrotation
												JOINT RightHandThumb3
												{
													OFFSET -2.657753 -1.534454 1.534455
													CHANNELS 3 Xrotation Yrotation Zrotation
													JOINT RightHandThumb4
													{
														OFFSET -1.807510 -1.043568 1.043567
														CHANNELS 3 Xrotation Yrotation Zrotation
														End Site
														{
															OFFSET 0.000000 0.000000 0.000000
														}
													}
												}
											}
										}
										JOINT RightHandIndex1
										{
											OFFSET -8.811420 0.015533 2.887987
											CHANNELS 3 Xrotation Yrotation Zrotation
											JOINT RightHandIndex2
											{
												OFFSET -3.537502 0.000000 0.000000
												CHANNELS 3 Xrotation Yrotation Zrotation
												JOINT RightHandIndex3
												{
													OFFSET -3.356201 0.000000 0.000000
													CHANNELS 3 Xrotation Yrotation Zrotation
													JOINT RightHandIndex4
													{
														OFFSET -1.933098 0.000000 0.000000
														CHANNELS 3 Xrotation Yrotation Zrotation
														End Site
														{
															OFFSET 0.000000 0.000000 0.000000
														}
													}
												}
											}
										}
										JOINT RightHandMiddle1
										{
											OFFSET -8.178135 0.000000 0.000000
											CHANNELS 3 Xrotation Yrotation Zrotation
											JOINT RightHandMiddle2
											{
												OFFSET -3.901302 0.000000 0.000000
												CHANNELS 3 Xrotation Yrotation Zrotation
												JOINT RightHandMiddle3
												{
													OFFSET -3.909599 0.000000 0.000000
													CHANNELS 3 Xrotation Yrotation Zrotation
													JOINT RightHandMiddle4
													{
														OFFSET -2.376003 0.000000 0.000000
														CHANNELS 3 Xrotation Yrotation Zrotation
														End Site
														{
															OFFSET 0.000000 0.000000 0.000000
														}
													}
												}
											}
										}
										JOINT RightHandRing1
										{
											OFFSET -7.559013 0.014137 -2.865403
											CHANNELS 3 Xrotation Yrotation Zrotation
											JOINT RightHandRing2
											{
												OFFSET -3.449306 0.000000 0.000000
												CHANNELS 3 Xrotation Yrotation Zrotation
												JOINT RightHandRing3
												{
													OFFSET -3.362106 0.000000 0.000000
													CHANNELS 3 Xrotation Yrotation Zrotation
													JOINT RightHandRing4
													{
														OFFSET -2.076401 0.000000 0.000000
														CHANNELS 3 Xrotation Yrotation Zrotation
														End Site
														{
															OFFSET 0.000000 0.000000 0.000000
														}
													}
												}
											}
										}
									}
								}
							}
						}
					}
				}
			}
		}
	}
	JOINT LeftUpLeg
	{
		OFFSET 10.205400 -3.823500 0.155100
		CHANNELS 3 Xrotation Yrotation Zrotation
		JOINT LeftLeg
		{
			OFFSET 0.708757 -12.982077 0.567790
			CHANNELS 3 Xrotation Yrotation Zrotation
			JOINT LeftFoot
			{
				OFFSET -0.708756 -10.717838 -2.184338
				CHANNELS 3 Xrotation Yrotation Zrotation
				JOINT LeftToeBase
				{
					OFFSET 0.108149 -7.191104 7.560241
					CHANNELS 3 Xrotation Yrotation Zrotation
					JOINT LeftToe_End
					{
						OFFSET 0.070230 0.081724 4.490308
						CHANNELS 3 Xrotation Yrotation Zrotation
						End Site
						{
							OFFSET 0.000000 0.000000 0.000000
						}
					}
				}
			}
		}
	}
	JOINT RightUpLeg
	{
		OFFSET -10.205400 -3.823500 0.005500
		CHANNELS 3 Xrotation Yrotation Zrotation
		JOINT RightLeg
		{
			OFFSET -0.708756 -12.982134 0.610632
			CHANNELS 3 Xrotation Yrotation Zrotation
			JOINT RightFoot
			{
				OFFSET 0.708754 -10.717769 -1.945823
				CHANNELS 3 Xrotation Yrotation Zrotation
				JOINT RightToeBase
				{
					OFFSET -0.108140 -7.191069 7.372968
					CHANNELS 3 Xrotation Yrotation Zrotation
					JOINT RightToe_End
					{
						OFFSET -0.070227 0.081735 4.479403
						CHANNELS 3 Xrotation Yrotation Zrotation
						End Site
						{
							OFFSET 0.000000 0.000000 0.000000
						}
					}
				}
			}
		}
	}
}
MOTION
Frames: 4
Frame Time: 0.016667
0.992579 19.259666 53.464760 26.477799 -55.986746 33.019156 36.072182 -1.857225 -12.575763 -1.957378 5.375154 -0.991197 0.000000 0.000000 0.000000 2.116134 5.078859 -0.821980 -12.375893 22.130636 -4.641765 -6.246889 18.672299 -15.900091 0.000000 -0.000000 -0.000001 5.941477 -18.519098 -1.957349 0.000000 0.000000 0.000000 -27.184732 20.945571 -31.616355 -81.078368 -81.172611 -70.319933 19.572879 -8.968063 11.330312 -2.637064 -7.745164 8.357713 4.850439 25.883367 0.310232 5.029096 28.059092 14.418582 -0.000002 -0.000002 -0.000000 13.403498 -1.931351 -0.362576 -0.144269 0.314255 -46.537306 -0.125014 0.299279 -34.598955 0.000000 0.000000 -0.000000 8.600805 -0.764870 -14.454857 0.337745 0.741014 -48.772923 0.367587 0.210476 -48.126595 -0.000001 -0.000000 -0.000000 6.268059 2.785898 -30.963092 0.134946 0.420923 -52.428136 0.396845 0.853292 -49.786079 0.000002 0.000000 0.000002 0.012716 27.801556 18.707799 0.000000 0.000000 0.000000 -54.993893 -1.387938 14.818761 -31.712872 58.823023 27.684025 29.626700 11.680913 -21.865394 4.362877 -2.376065 -10.417858 6.382035 -22.873400 7.534697 4.855457 -25.932804 -12.746841 0.000001 -0.000001 0.000003 12.580753 5.223939 8.328360 -0.320484 -0.269478 55.178544 -0.229774 -0.205164 38.884690 0.000004 0.000001 0.000001 6.735568 -0.416791 21.668217 0.630591 -0.710904 59.162737 0.526183 -0.129077 49.031001 -0.000001 -0.000000 -0.000000 3.077466 -6.824886 32.208710 0.532228 -0.321428 64.382210 0.525848 -0.784141 60.196964 0.000000 0.000002 0.000001 -39.196823 -44.567886 54.438746 76.971492 -12.097687 -45.923139 -21.036209 3.375538 -29.834461 -0.534197 1.617770 0.840850 0.000000 -0.000002 0.000000 -66.552906 43.490977 -49.423556 108.720390 37.660891 7.207765 -42.209015 -11.062154 18.649732 -0.384439 -1.379032 -0.725593 0.000000 0.000003 0.000000 
1.030560 19.301029 53.661320 28.214613 -56.483892 34.266615 35.753131 -2.150938 -14.055890 -2.211905 5.602690 -0.808045 0.000000 0.000000 0.000000 1.905239 5.369611 -0.299741 -12.094920 22.484177 -4.602859 -6.896199 18.777336 -15.089626 0.000001 0.000000 -0.000000 6.664341 -18.263933 -2.232506 0.000000 0.000000 0.000000 -27.495661 17.707779 -32.135108 -65.949438 -80.866626 -55.485329 19.983569 -7.423060 10.194821 -2.565584 -7.754373 8.363814 4.988652 26.393926 0.484769 5.024901 28.382236 14.577743 -0.000002 -0.000003 -0.000000 13.409948 -1.900504 -2.024964 -0.142146 0.315779 -49.012324 -0.122618 0.301061 -37.263852 0.000001 0.000000 -0.000000 8.587734 -0.735834 -16.027777 0.347275 0.750561 -51.229386 0.381294 0.223167 -50.966913 0.000002 -0.000000 -0.000000 6.254691 2.818131 -32.426046 0.146168 0.429323 -54.763559 0.412228 0.865585 -52.607486 -0.000002 0.000001 -0.000001 0.392915 28.446681 18.972628 0.000000 0.000000 0.000000 -54.816882 -0.739624 15.725259 -32.159519 59.955701 28.371971 30.216559 9.118560 -21.036129 4.934229 -2.758363 -10.624078 6.709284 -23.370553 7.689447 5.057487 -28.342881 -13.846360 0.000003 0.000003 0.000003 12.835081 4.880016 10.435484 -0.342465 -0.295551 58.867065 -0.249745 -0.219150 41.608840 -0.000001 -0.000000 -0.000001 6.540491 -0.366034 24.090060 0.670367 -0.689418 62.625738 0.555714 -0.116254 51.572201 0.000000 -0.000001 0.000000 2.533752 -6.923152 34.344387 0.559772 -0.307383 67.256388 0.552947 -0.769929 63.039518 0.000001 -0.000000 0.000001 -38.087194 -44.175655 55.956366 77.339243 -12.890146 -47.026652 -22.335858 3.419663 -29.155646 -0.515863 1.600633 0.840539 0.000000 -0.000001 0.000000 -68.331760 43.533368 -47.922243 107.797385 36.432246 6.794829 -40.857789 -10.808417 19.947774 -0.381438 -1.361533 -0.730279 0.000000 0.000001 -0.000000 
1.044812 19.393539 53.841343 29.297922 -56.759897 35.239931 35.082929 -2.425655 -15.558514 -2.135783 5.671951 -0.623131 0.000000 0.000000 0.000000 1.911771 5.457643 0.250419 -12.116952 22.696531 -4.358120 -7.303199 18.909088 -14.670551 0.000000 0.000000 0.000001 7.124619 -18.651621 -2.187855 0.000000 0.000000 0.000000 -27.932351 15.768878 -32.151948 -52.503811 -79.963634 -42.362729 19.874051 -6.198309 8.772600 -2.494179 -7.763604 8.369847 5.113590 26.867017 0.646003 5.019997 28.690725 14.730216 -0.000002 -0.000007 -0.000004 13.421743 -1.871656 -3.652798 -0.140184 0.317271 -51.493933 -0.120400 0.303008 -40.006136 0.000001 0.000000 -0.000001 8.575921 -0.708615 -17.530017 0.357460 0.759478 -53.634296 0.396378 0.235108 -53.814907 -0.000001 0.000000 0.000001 6.241554 2.849677 -33.783024 0.157185 0.436982 -56.993352 0.428580 0.876643 -55.369700 0.000001 0.000002 -0.000001 0.481429 28.460049 19.320841 0.000000 0.000000 0.000000 -54.296261 -0.269322 17.138944 -33.555893 61.774751 30.127268 31.259573 6.241257 -19.766171 5.449419 -3.079961 -10.807711 7.007135 -23.827952 7.829295 5.207858 -30.639242 -14.907383 0.000001 -0.000000 0.000001 13.115566 4.577877 12.470375 -0.362166 -0.324239 62.492700 -0.269141 -0.235257 44.348155 -0.000004 -0.000002 -0.000004 6.340844 -0.331179 26.374446 0.707221 -0.664518 65.968856 0.584160 -0.100877 54.085830 -0.000000 0.000000 0.000002 2.011719 -7.073392 36.304785 0.584424 -0.291953 69.957543 0.578160 -0.753611 65.783321 0.000002 -0.000002 -0.000000 -37.182553 -43.980988 56.337169 77.599938 -13.025953 -47.903122 -23.425887 3.541446 -28.671987 -0.499316 1.583557 0.840251 -0.000000 0.000000 -0.000000 -69.200000 43.388941 -47.231649 107.083678 35.359616 6.166124 -39.993244 -10.519517 21.058911 -0.378277 -1.344220 -0.734779 0.000000 -0.000002 -0.000000 
1.082216 19.537212 54.020084 29.772077 -56.618215 35.424291 34.193184 -2.570402 -16.113130 -1.873217 5.586118 -0.555364 0.000000 0.000000 0.000000 2.077619 5.368867 0.484107 -12.370073 22.770488 -4.044474 -7.971458 19.199325 -14.250029 0.000002 0.000000 0.000001 6.965534 -19.294364 -2.102310 0.000000 0.000000 0.000000 -28.134876 15.072522 -32.000536 -44.720845 -79.216923 -34.965893 19.735951 -4.859248 6.786337 -2.423067 -7.772818 8.375879 5.223504 27.295353 0.791264 5.014516 28.980216 14.873881 -0.000003 0.000001 -0.000002 13.438331 -1.845267 -5.224448 -0.138568 0.318799 -53.948891 -0.118364 0.305095 -42.787242 0.000002 0.000001 0.000004 8.565229 -0.683848 -18.940736 0.367944 0.767631 -55.955430 0.412639 0.245970 -56.632216 0.000000 -0.000000 -0.000002 6.228791 2.879360 -35.013537 0.167722 0.443776 -59.086382 0.445523 0.886329 -58.035694 -0.000001 -0.000001 -0.000000 0.326751 28.032109 19.689702 0.000000 0.000000 0.000000 -54.046054 0.106974 18.102732 -34.543169 63.125585 31.386434 32.050502 4.260149 -17.576669 5.901725 -3.333595 -10.969726 7.271097 -24.239496 7.950924 5.309798 -32.795239 -15.919972 0.000000 -0.000000 0.000001 13.414733 4.320672 14.409764 -0.379312 -0.354830 66.014898 -0.287449 -0.253330 47.072346 0.000001 -0.000001 -0.000002 6.140119 -0.310643 28.493896 0.740393 -0.636868 69.154402 0.611021 -0.083368 56.545763 0.000000 -0.000001 -0.000001 1.519331 -7.265435 38.063036 0.606033 -0.275869 72.451860 0.601164 -0.735631 68.397064 0.000005 0.000001 -0.000001 -37.355794 -44.265233 55.959812 77.954629 -12.905700 -48.236353 -23.914704 3.578535 -28.195601 -0.485977 1.566484 0.840001 0.000000 -0.000001 0.000000 -69.160576 42.352541 -47.251679 106.392607 33.620353 5.373174 -39.552471 -9.686995 22.390748 -0.375713 -1.327087 -0.740081 0.000000 0.000001 -0.000000 
